<?xml version="1.0" encoding="utf-8"?>
<!-- Generator: Adobe Illustrator 22.1.0, SVG Export Plug-In . SVG Version: 6.00 Build 0)  -->
<svg version="1.1" id="content" xmlns="http://www.w3.org/2000/svg" xmlns:xlink="http://www.w3.org/1999/xlink" x="0px" y="0px"
	 viewBox="0 0 56.4 51.4" style="enable-background:new 0 0 56.4 51.4;" xml:space="preserve">
<style type="text/css">
	.st0{fill:#4197CB;}
	.st1{fill:#FF9F37;}
</style>
<g>
	<g>
		<path class="st0" d="M44,5.4c2.4,0,4.3,1.9,4.3,4.3v13.7h-2.2l5,8.1l4.9-8.1h-2.3V9.7C53.7,4.4,49.4,0,44,0l0,0H12
			C6.7,0,2.3,4.4,2.3,9.7v7.4h5.4V9.7c0-2.4,1.9-4.3,4.3-4.3L44,5.4"/>
		<path class="st1" d="M12,46c-2.4,0-4.3-1.9-4.3-4.3V28h2.2l-5-8.1L0,28h2.3v13.7c0,5.4,4.4,9.7,9.7,9.7l0,0h32
			c5.4,0,9.7-4.4,9.7-9.7v-7.4h-5.4v7.4c0,2.4-1.9,4.3-4.3,4.3H12"/>
		<path class="st1" d="M28,38.5c-7.9,0-14.3-5.8-14.3-12.9H19c0,4.2,4.1,7.6,9,7.6s9-3.4,9-7.6h5.3C42.4,32.7,35.9,38.5,28,38.5z"/>
	</g>
	<g>
		<path class="st0" d="M54.7,0.6c0.3,0,0.5,0.1,0.8,0.2C55.8,1,56,1.2,56.1,1.4c0.1,0.3,0.2,0.5,0.2,0.8c0,0.3-0.1,0.6-0.2,0.8
			s-0.3,0.5-0.6,0.6c-0.3,0.1-0.5,0.2-0.8,0.2c-0.3,0-0.6-0.1-0.8-0.2c-0.3-0.1-0.5-0.3-0.6-0.6c-0.1-0.3-0.2-0.5-0.2-0.8
			c0-0.3,0.1-0.6,0.2-0.8c0.1-0.3,0.3-0.5,0.6-0.6C54.1,0.7,54.4,0.6,54.7,0.6z M54.7,0.9c-0.2,0-0.4,0.1-0.6,0.2
			c-0.2,0.1-0.4,0.3-0.5,0.5S53.4,2,53.4,2.3c0,0.2,0.1,0.4,0.2,0.7c0.1,0.2,0.3,0.4,0.5,0.5c0.2,0.1,0.4,0.2,0.7,0.2
			c0.2,0,0.4-0.1,0.7-0.2c0.2-0.1,0.4-0.3,0.5-0.5C56,2.7,56,2.5,56,2.3C56,2,56,1.8,55.8,1.6c-0.1-0.2-0.3-0.4-0.5-0.5
			C55.1,1,54.9,0.9,54.7,0.9z M54,3.1V1.4h0.4c0.3,0,0.5,0,0.6,0c0.1,0,0.2,0,0.3,0.1c0.1,0,0.1,0.1,0.2,0.2c0,0.1,0.1,0.2,0.1,0.2
			c0,0.1,0,0.2-0.1,0.3c-0.1,0.1-0.2,0.1-0.3,0.2c0.1,0,0.1,0,0.1,0.1c0,0,0.1,0.1,0.1,0.1c0,0,0.1,0.1,0.1,0.2l0.2,0.3H55l-0.1-0.3
			c-0.1-0.2-0.2-0.3-0.2-0.4c-0.1,0-0.1-0.1-0.2-0.1h-0.1v0.7H54z M54.3,2.1h0.1c0.2,0,0.3,0,0.4,0c0,0,0.1,0,0.1-0.1
			c0,0,0-0.1,0-0.1c0,0,0-0.1,0-0.1c0,0-0.1-0.1-0.1-0.1c-0.1,0-0.2,0-0.4,0h-0.1V2.1z"/>
	</g>
</g>
</svg>
