<svg id="Logo_Variations" data-name="Logo Variations" xmlns="http://www.w3.org/2000/svg" xmlns:xlink="http://www.w3.org/1999/xlink" viewBox="0 0 388.48 75.95"><defs><style>.cls-1{fill:#101f30;}.cls-2{fill:url(#New_Gradient_Swatch_2);}.cls-3,.cls-4{fill:#0077c2;}.cls-3{fill-rule:evenodd;}.cls-5{fill:#666;}</style><linearGradient id="New_Gradient_Swatch_2" x1="313.6" y1="53.56" x2="329.41" y2="37.74" gradientUnits="userSpaceOnUse"><stop offset="0.05" stop-color="#078181"/><stop offset="0.21" stop-color="#07997d"/><stop offset="0.41" stop-color="#08af7a"/><stop offset="0.6" stop-color="#08bc78"/><stop offset="0.77" stop-color="#08c177"/></linearGradient></defs><title>QuoteWizard-Color</title><g id="color"><g id="LendingTree"><path class="cls-1" d="M382.86,61.13a7.28,7.28,0,0,0-1.43-4.84,5.29,5.29,0,0,0-4.25-1.7,5.53,5.53,0,0,0-4.36,1.74,7.49,7.49,0,0,0-1.53,5.05,7.11,7.11,0,0,0,.83,3.57,5.3,5.3,0,0,0,2.25,2.13,6.9,6.9,0,0,0,3.11.69,8.7,8.7,0,0,0,2.41-.31,6.79,6.79,0,0,0,2-1,.65.65,0,0,0,.28-.5.91.91,0,0,0-.09-.37l-.51-1.06c-.12-.32-.32-.36-.44-.36a.66.66,0,0,0-.35.13,5.19,5.19,0,0,1-2.92.86,3.73,3.73,0,0,1-2.6-.83,2.94,2.94,0,0,1-.91-2.15H382C382.3,62.22,382.86,62.08,382.86,61.13Zm-8.54-1.2a3.16,3.16,0,0,1,.75-2,2.73,2.73,0,0,1,2.14-.83,2.55,2.55,0,0,1,2.05.8,3.3,3.3,0,0,1,.68,2.06Z"/><path class="cls-1" d="M364.57,54.59a5.56,5.56,0,0,0-4.37,1.74,7.49,7.49,0,0,0-1.53,5.05,7,7,0,0,0,.84,3.57,5.28,5.28,0,0,0,2.24,2.13,6.94,6.94,0,0,0,3.12.69,8.68,8.68,0,0,0,2.4-.31,6.79,6.79,0,0,0,2-1,.62.62,0,0,0,.28-.5.87.87,0,0,0-.09-.37l-.5-1.06a.46.46,0,0,0-.44-.36.66.66,0,0,0-.36.13,5.19,5.19,0,0,1-2.92.86,3.74,3.74,0,0,1-2.6-.83,2.93,2.93,0,0,1-.9-2.15h7.63c.34,0,.91-.14.91-1.09a7.3,7.3,0,0,0-1.44-4.84A5.28,5.28,0,0,0,364.57,54.59Zm2.75,5.34h-5.61a3.1,3.1,0,0,1,.74-2,2.73,2.73,0,0,1,2.14-.83,2.55,2.55,0,0,1,2.05.8A3.3,3.3,0,0,1,367.32,59.93Z"/><path class="cls-1" d="M359.12,55.83a.62.62,0,0,0,0-.38.61.61,0,0,0-.24-.33,5.29,5.29,0,0,0-2.23-.42,11.66,11.66,0,0,0-3.2.61.51.51,0,0,0-.47-.26h-1.43a.68.68,0,0,0-.62.24,1.11,1.11,0,0,0-.15.65V66.27a1.22,1.22,0,0,0,.24.81.05.05,0,0,0,0,0,1,1,0,0,0,.75.27h1.11a1,1,0,0,0,.81-.3,1.28,1.28,0,0,0,.23-.81V57.82a8.83,8.83,0,0,1,2.39-.41h.31a2.22,2.22,0,0,1,.93.25l.2.06h.05a.43.43,0,0,0,.43-.38l.83-1.5Z"/><path class="cls-1" d="M349.39,55.26a.84.84,0,0,0-.74-.28h-2.18V51.81a1.33,1.33,0,0,0-.2-.77.89.89,0,0,0-.73-.29h-1.32a.86.86,0,0,0-.72.29,1.26,1.26,0,0,0-.21.77V63.15c0,3.69,2.29,4.46,3.48,4.61a.63.63,0,0,0,.71-.62V65.45a.64.64,0,0,0-.34-.56,1,1,0,0,1-.36-.3,2.61,2.61,0,0,1-.31-1.54V57.77h2.18a.88.88,0,0,0,.74-.26,1.22,1.22,0,0,0,.19-.78v-.68A1.26,1.26,0,0,0,349.39,55.26Z"/><path class="cls-1" d="M339.41,55.07a8.93,8.93,0,0,0-2.8-.46,6.3,6.3,0,0,0-4.77,1.75,7,7,0,0,0-1.66,5,6.49,6.49,0,0,0,1.4,4.44,4.94,4.94,0,0,0,3.9,1.6,5,5,0,0,0,2-.38,3.84,3.84,0,0,0,1.07-.73,3.39,3.39,0,0,1-.59,2,2.42,2.42,0,0,1-1.93.72,7.4,7.4,0,0,1-2.34-.38.43.43,0,0,0-.58.39l-.05,1.83a.43.43,0,0,0,.32.43,12.3,12.3,0,0,0,2.88.41,4.81,4.81,0,0,0,4.14-1.81A8.1,8.1,0,0,0,341.74,65V56.1A22.5,22.5,0,0,0,339.41,55.07Zm-.81,2.67v4.31a2.55,2.55,0,0,1-.68,1.88,2.46,2.46,0,0,1-1.8.67,2.57,2.57,0,0,1-2.1-.83,4.1,4.1,0,0,1-.7-2.62c0-2.56,1-3.8,3.17-3.8a6.41,6.41,0,0,1,1.26.12A3,3,0,0,1,338.6,57.74Z"/><path class="cls-1" d="M324.89,54.61a11.64,11.64,0,0,0-3.45.5l-.58.15a.53.53,0,0,0-.48-.28H319a.69.69,0,0,0-.63.25,1.09,1.09,0,0,0-.15.65V66.3a1.17,1.17,0,0,0,.25.81,1,1,0,0,0,.78.31h1.12a1,1,0,0,0,.8-.31,1.28,1.28,0,0,0,.23-.81V57.77a10.81,10.81,0,0,1,2.61-.42,1.83,1.83,0,0,1,1.39.44,2.33,2.33,0,0,1,.42,1.59V66.3a1.22,1.22,0,0,0,.25.81,1,1,0,0,0,.79.31H328a.94.94,0,0,0,.78-.31,1.22,1.22,0,0,0,.23-.81V59.18a4.71,4.71,0,0,0-1.12-3.42A4,4,0,0,0,324.89,54.61Z"/><path class="cls-1" d="M315.61,55h-1.12a1,1,0,0,0-.79.31,1.28,1.28,0,0,0-.24.84V66.3a1.22,1.22,0,0,0,.24.81,1,1,0,0,0,.79.31h1.12a1,1,0,0,0,.8-.31,1.28,1.28,0,0,0,.23-.81V56.13a1.22,1.22,0,0,0-.25-.84A1,1,0,0,0,315.61,55Z"/><path class="cls-1" d="M311.64,49.76c-.93.42-2.86,2-2.86,2.42v3.28a4.69,4.69,0,0,0-3-.87,5,5,0,0,0-2.88.83A5.36,5.36,0,0,0,301,57.75a8.63,8.63,0,0,0-.63,3.4c0,4.39,2.12,6.62,6.3,6.62a9,9,0,0,0,2.92-.48,20.12,20.12,0,0,0,2.33-1.05V50.06a.27.27,0,0,0-.07-.2C311.8,49.8,311.71,49.73,311.64,49.76Zm-2.86,9.82v5a3.75,3.75,0,0,1-2,.49,3.13,3.13,0,0,1-2.43-.87,4.39,4.39,0,0,1-.8-3,5.05,5.05,0,0,1,.73-2.9,2.47,2.47,0,0,1,2.16-1,2.59,2.59,0,0,1,1.74.57A2.12,2.12,0,0,1,308.78,59.58Z"/><path class="cls-1" d="M295.08,54.61a11.64,11.64,0,0,0-3.45.5l-.07,0-.51.13a.52.52,0,0,0-.48-.28h-1.42a.7.7,0,0,0-.63.25,1.09,1.09,0,0,0-.15.65V66.3a1.22,1.22,0,0,0,.25.81,1,1,0,0,0,.79.31h1.11a1,1,0,0,0,.8-.31,1.28,1.28,0,0,0,.23-.81V57.77a10.81,10.81,0,0,1,2.61-.42,1.81,1.81,0,0,1,1.39.44,2.33,2.33,0,0,1,.43,1.59V66.3a1.22,1.22,0,0,0,.24.81,1,1,0,0,0,.79.31h1.13a.94.94,0,0,0,.78-.31,1.22,1.22,0,0,0,.24-.81V59.18A4.72,4.72,0,0,0,298,55.76,4,4,0,0,0,295.08,54.61Z"/><path class="cls-1" d="M281.47,54.59a5.53,5.53,0,0,0-4.36,1.74,7.49,7.49,0,0,0-1.53,5.05,7.11,7.11,0,0,0,.83,3.57,5.3,5.3,0,0,0,2.25,2.13,6.9,6.9,0,0,0,3.11.69,8.7,8.7,0,0,0,2.41-.31,6.79,6.79,0,0,0,2-1,.65.65,0,0,0,.28-.5.91.91,0,0,0-.09-.37l-.51-1.06c-.12-.32-.32-.36-.44-.36a.66.66,0,0,0-.35.13,5.19,5.19,0,0,1-2.92.86,3.73,3.73,0,0,1-2.6-.83,2.94,2.94,0,0,1-.91-2.15h7.64c.34,0,.9-.14.9-1.09a7.3,7.3,0,0,0-1.43-4.84A5.29,5.29,0,0,0,281.47,54.59Zm2.76,5.34h-5.62a3.16,3.16,0,0,1,.75-2,2.73,2.73,0,0,1,2.14-.83,2.55,2.55,0,0,1,2.05.8A3.3,3.3,0,0,1,284.23,59.93Z"/><path class="cls-1" d="M274.38,64.59a2.62,2.62,0,0,1-.3-1.54V51.17a1.26,1.26,0,0,0-.21-.77.86.86,0,0,0-.72-.29h-1.33a.88.88,0,0,0-.72.29,1.26,1.26,0,0,0-.2.77v12c0,3.69,2.28,4.46,3.47,4.61a.62.62,0,0,0,.71-.62V65.45a.65.65,0,0,0-.33-.56A1.06,1.06,0,0,1,274.38,64.59Z"/></g><g id="Leaf"><path class="cls-2" d="M329.11,37.48A99.16,99.16,0,0,0,319,39.16c-5.63,1.4-5.53,6.1-5.53,8v6.27c0,.08.07.1.12,0a56.86,56.86,0,0,1,7.95-8.58s0,0,0,0a25.65,25.65,0,0,0-4.83,2.08c0-.45,0-.75,0-.8,0-3.2,1.86-4.06,4.1-4.68a38.21,38.21,0,0,1,5.24-.8s-.28,2-.64,6c-.26,3-2.44,3.63-5.47,3.63h-1.72a8.61,8.61,0,0,0-1.55,3.15H320c6.38,0,7.8-2.81,8.1-7a67.77,67.77,0,0,1,1.08-8.93A.06.06,0,0,0,329.11,37.48Z"/></g><path class="cls-1" d="M385.31,55.49a1.19,1.19,0,0,0-.49-.48,1.26,1.26,0,0,0-.65-.17,1.29,1.29,0,0,0-.65.17,1.19,1.19,0,0,0-.49.48,1.32,1.32,0,0,0-.18.67,1.3,1.3,0,0,0,.18.65,1.28,1.28,0,0,0,.49.49,1.34,1.34,0,0,0,.65.17,1.41,1.41,0,0,0,.66-.17,1.28,1.28,0,0,0,.49-.49,1.4,1.4,0,0,0,.17-.65A1.32,1.32,0,0,0,385.31,55.49Zm-.22,1.19a1,1,0,0,1-.39.4,1.1,1.1,0,0,1-.53.14,1.07,1.07,0,0,1-.52-.14,1,1,0,0,1-.39-.4,1,1,0,0,1-.14-.52,1.06,1.06,0,0,1,.53-.93,1.08,1.08,0,0,1,.52-.13,1.12,1.12,0,0,1,.53.13,1.06,1.06,0,0,1,.53.93A1,1,0,0,1,385.09,56.68Z"/><path class="cls-1" d="M384.56,56.38a.48.48,0,0,0-.09-.1.19.19,0,0,0-.09-.05.43.43,0,0,0,.26-.13.37.37,0,0,0,.1-.25.41.41,0,0,0-.05-.19.4.4,0,0,0-.13-.13.81.81,0,0,0-.21-.05h-.7v1.33h.28v-.55H384a.28.28,0,0,1,.18.06,1.05,1.05,0,0,1,.19.27l.11.22h.34l-.16-.27Zm-.23-.35a1,1,0,0,1-.3,0h-.1v-.36h.1a1,1,0,0,1,.3,0,.24.24,0,0,1,.09.06.18.18,0,0,1,0,.2A.24.24,0,0,1,384.33,56Z"/></g><path class="cls-3" d="M115.6,22.07a2.87,2.87,0,0,0-2.69,2.8v8.86c0,4.26-2,6.44-6,6.44-4.2,0-6-3.13-6-6.27v-9a2.69,2.69,0,0,0-2.52-2.8A2.92,2.92,0,0,0,95.48,25V33.9c0,7.39,4,11.6,11.1,11.6a11,11,0,0,0,6.5-1.68,2.25,2.25,0,0,0,2.52,1.68A2.48,2.48,0,0,0,118.29,43V24.87a2.87,2.87,0,0,0-2.69-2.8"/><path class="cls-3" d="M155.33,40.17h-.78L153,40.06c-.62-.28-.95-1.06-.95-2.35V27.79h2.74c1.69,0,2.53-.9,2.53-2.69a2.32,2.32,0,0,0-2.69-2.52H152V17.14a2.67,2.67,0,0,0-5.33.11v5.33h-1.85c-1,0-2.12.67-2.12,2.52A2.33,2.33,0,0,0,145,27.73h1.68V38a7.71,7.71,0,0,0,.4,2.64v0c1.4,3.09,3.53,4.66,6.38,4.66h1.57c1,0,2.25-.45,2.58-2.47v-.39c-.22-1.91-1.4-2.36-2.3-2.36"/><path class="cls-3" d="M169.18,22.07c-7,0-11.44,6.45-11.44,11.66s3.48,11.71,10.76,11.71c5.05,0,8.52-3.14,7.12-5.21-1-1.46-2-1.07-3-.45-.56.34-1.23,1.07-4.2,1.07-1.9,0-4.09-2-4.54-3.81h14.52c1,0,2.24-.45,2.63-2.58V33.9a11.79,11.79,0,0,0-11.82-11.83m.56,5.55c5.66,0,6.22,4.09,6.22,4.09H163.29c.06,0,.84-4.09,6.45-4.09"/><path class="cls-3" d="M131.57,22.13a11.71,11.71,0,1,0,11.72,11.71,11.75,11.75,0,0,0-11.72-11.71m0,17.93a6.22,6.22,0,1,1,6.22-6.22,6.24,6.24,0,0,1-6.22,6.22"/><path class="cls-3" d="M90.61,38.49a16.05,16.05,0,1,0-3.76,3.81L89,44.43a2.83,2.83,0,0,0,1.91,1,2.63,2.63,0,0,0,1.85-.9c.84-.84,1.73-2.13.11-3.76ZM80.8,32.27a2.72,2.72,0,0,0,.06,4l2.24,2.24a10.38,10.38,0,1,1,3.7-3.86L84.67,32.5a3,3,0,0,0-2.08-1A2.5,2.5,0,0,0,80.8,32.27Z"/><path class="cls-3" d="M213.22,13.72h-.5A2.58,2.58,0,0,0,210.65,15l-.06.11-5.27,18.1c-2.69-9.42-4.71-16.53-5-17.43a2.57,2.57,0,0,0-2.47-2,2.34,2.34,0,0,0-2.52,1.8l-.06.16c-.78,2.53-2.52,8.07-5.21,17.54l-5.15-18.1a2.25,2.25,0,0,0-2.3-1.68,3.24,3.24,0,0,0-1,.17,2.46,2.46,0,0,0-1.85,3.25c.23.84,2,6.78,3.59,12.55,1.74,6,3.47,12.05,3.75,13.12.56,1.9.9,3.08,2.75,3.08a2.44,2.44,0,0,0,2.74-2.13c.29-1.06,3.7-12.78,5-17.37.84,2.86,2.36,7.73,3.48,11.54.78,2.58,1.4,4.65,1.62,5.33.56,2,1.07,2.63,2.58,2.63s2.07-.5,2.52-2,7.4-25.66,7.74-26.73v-.62c.16-1-.23-2.13-2.25-2.52"/><path class="cls-3" d="M220.23,22a2.66,2.66,0,0,0-2.75,2.85V42.81a2.39,2.39,0,0,0,2.64,2.69c1.17,0,2.74-.28,2.74-2.58v-18A2.71,2.71,0,0,0,220.23,22"/><path class="cls-3" d="M220.06,15.63a2.66,2.66,0,0,0-2.69,2.69A2.73,2.73,0,0,0,220.06,21a2.64,2.64,0,0,0,2.75-2.69,2.74,2.74,0,0,0-2.75-2.69"/><path class="cls-3" d="M242.42,40.17h-8.91l9.36-11.76.39-.45c1-1.12,1.63-1.91,1.63-3.09a2.7,2.7,0,0,0-2.58-2.8H227.63a2.64,2.64,0,0,0-2.41,2.8c0,1.85.95,2.81,2.69,2.81h8.74l-8,10.08a15.38,15.38,0,0,0-1,1.18c-1.57,1.79-2.36,2.69-2.36,3.81a2.57,2.57,0,0,0,2.64,2.75h14.45a2.34,2.34,0,0,0,2.53-2.64,2.48,2.48,0,0,0-2.47-2.69"/><path class="cls-3" d="M286.81,23.19a11.18,11.18,0,0,0-5.44-1.12,9.05,9.05,0,0,0-5.72,1.68,2.34,2.34,0,0,0-2.52-1.68,2.68,2.68,0,0,0-2.74,2.86V42.86A2.5,2.5,0,0,0,273,45.5a2.58,2.58,0,0,0,2.75-2.58V31.21c0-2.47,3-3.76,5.94-3.76a7.63,7.63,0,0,1,2.8.45l.61.17a2.58,2.58,0,0,0,2.81-1.79,2.61,2.61,0,0,0-1.12-3.09"/><path class="cls-3" d="M268.2,33.84a11.77,11.77,0,1,0-11.77,11.77,11.51,11.51,0,0,0,6.5-2,2.61,2.61,0,0,0,2.64,1.9,2.52,2.52,0,0,0,2.63-2.63V41.74c.06-1.68,0-4.76,0-7.9m-11.71,6.45a6.45,6.45,0,1,1,6.44-6.51v.12a6.5,6.5,0,0,1-6.44,6.39"/><path class="cls-3" d="M308.72,13.78c-1.24,0-2.69.56-2.69,3.14V23.7a10.15,10.15,0,0,0-6.39-1.8,11.69,11.69,0,0,0-11.77,11.83,11.74,11.74,0,1,0,23.48,0V16.8c-.06-2.52-1.46-3-2.63-3m-9.14,13.67a6.28,6.28,0,1,1-6.27,6.28,6.27,6.27,0,0,1,6.27-6.28"/><path class="cls-3" d="M49,45.83l-.11-.11a25.2,25.2,0,1,0-3.48,3.42l2.8,2.8a2.58,2.58,0,0,0,1.74.73,2.44,2.44,0,0,0,1.74-4.15Zm-3.42-3.69a.26.26,0,0,0-.11.16l-8.58-8.57,6.45-2-7.68-5.43.11-9.36-7.51,5.6-8.91-3,3,8.92-5.6,7.5,9.35-.11,5.44,7.68,2-6.28L42,45.67a20.38,20.38,0,1,1,8-16.14A20.92,20.92,0,0,1,45.55,42.14Z"/><path class="cls-4" d="M318.8,15.11a2.58,2.58,0,0,0-1-1,2.82,2.82,0,0,0-2.76,0,2.52,2.52,0,0,0-1,1,2.76,2.76,0,0,0-.38,1.4,2.79,2.79,0,0,0,.37,1.4,2.62,2.62,0,0,0,1,1,2.82,2.82,0,0,0,1.4.37,2.78,2.78,0,0,0,1.39-.37,2.64,2.64,0,0,0,1-1,2.9,2.9,0,0,0,.37-1.4A2.86,2.86,0,0,0,318.8,15.11Zm-.47,2.53a2.14,2.14,0,0,1-.83.83,2.24,2.24,0,0,1-1.12.3,2.27,2.27,0,0,1-1.12-.3,2.2,2.2,0,0,1-.83-.83,2.28,2.28,0,0,1-.3-1.13,2.21,2.21,0,0,1,.31-1.13,2.07,2.07,0,0,1,.83-.83,2.36,2.36,0,0,1,1.11-.29,2.3,2.3,0,0,1,1.11.29,2.16,2.16,0,0,1,.84.83,2.3,2.3,0,0,1,.3,1.13A2.28,2.28,0,0,1,318.33,17.64Z"/><path class="cls-4" d="M317.2,17a1.18,1.18,0,0,0-.19-.22.62.62,0,0,0-.2-.1,1,1,0,0,0,.56-.27.73.73,0,0,0,.2-.53.77.77,0,0,0-.1-.4.67.67,0,0,0-.27-.28,1.12,1.12,0,0,0-.44-.11h-1.48v2.84h.57V16.74H316a.63.63,0,0,1,.4.12,2,2,0,0,1,.4.59l.23.46h.71l-.33-.57C317.29,17.13,317.22,17,317.2,17Zm-.5-.73a3.12,3.12,0,0,1-.61,0h-.24v-.78h.24a3.2,3.2,0,0,1,.61,0,.35.35,0,0,1,.26.35.31.31,0,0,1-.07.21A.34.34,0,0,1,316.7,16.26Z"/><path class="cls-5" d="M253.48,61.3V50.66h1.29V55a3.54,3.54,0,0,1,1-.85,2.68,2.68,0,0,1,1.34-.32,2.66,2.66,0,0,1,1.15.23,2.31,2.31,0,0,1,.87.72,3.35,3.35,0,0,1,.56,1.17,6,6,0,0,1,.19,1.6,5.25,5.25,0,0,1-.21,1.51,3.61,3.61,0,0,1-.63,1.2,3,3,0,0,1-1,.81,3.05,3.05,0,0,1-1.33.29,2.37,2.37,0,0,1-1.2-.28,2.58,2.58,0,0,1-.86-.76l-.07.66a.31.31,0,0,1-.33.28Zm3.26-6.41a2.1,2.1,0,0,0-1.1.29,3.17,3.17,0,0,0-.87.82v3.53a2,2,0,0,0,.77.68,2.23,2.23,0,0,0,.94.19,1.85,1.85,0,0,0,1.58-.73,3.43,3.43,0,0,0,.55-2.08,5.52,5.52,0,0,0-.13-1.23,2.32,2.32,0,0,0-.37-.84,1.34,1.34,0,0,0-.58-.48A2,2,0,0,0,256.74,54.89Z"/><path class="cls-5" d="M263.47,63.46a.81.81,0,0,1-.17.23.42.42,0,0,1-.3.08h-.95l1.34-2.9-3-6.89h1.11a.4.4,0,0,1,.26.08.62.62,0,0,1,.14.19l1.95,4.61a2,2,0,0,1,.12.31c0,.11.06.22.08.33,0-.11.07-.22.1-.33a2.56,2.56,0,0,1,.12-.32l1.9-4.6a.38.38,0,0,1,.14-.19.4.4,0,0,1,.23-.08h1Z"/></svg>